# xmcd
#
# Track frame offsets:
#	150
#	16743
#	34585
#	50718
#	67210
#	82318
#	95963
#	108670
#	123858
#	141065
#	158378
#	173303
#	188730
#	208620
#	223380
#	233390
#
# Disc length: 3293 seconds
#
# Revision: 0
# Processed by: cddbd v1.4PL0 Copyright (c) Steve Scherf et al.
# Submitted via: MusicWizard 6.0.0
#
DISCID=dc0cdb10
DTITLE=Various Artist - TRUCKS and TRÄUME
DYEAR=1900
DGENRE=Country
TTITLE0=SAMMY`S SALON - COUNTRY MUSIC IN TEXAS
TTITLE1=LARRY and LIANE - EIGENTLICH BRAUCH` ICH NUR DICH
TTITLE2=FREYTAG OLIVER - HEY DRIVER
TTITLE3=WESTERN UNION - NACH S_DEN
TTITLE4=GEHLERT HEIDI - COUNTRY WELT
TTITLE5=NASHVILLE MUSIC COMPANY - ES GEHT WEITER
TTITLE6=TENNESSEE - ICH VERGESSE MEINEN ÄRGER
TTITLE7=FORSTMAN ANDY - MY TENNESSEE HOME
TTITLE8=KENT SABY - BLUE BAYOU
TTITLE9=KENTUCKY ANDRE - SIE IST EIN EHRBARES MÄDCHEN
TTITLE10=EMSLAND HILLBILLIES - COWBOY ROADIE
TTITLE11=WOOD NANCY - KEINE ROSE BLÜHT AUF DEM ASPHALT
TTITLE12=GABRIEL GUNTER - MÄDCHEN AB 30
TTITLE13=KIRSTAIN HAINS - ICH MÖCHT` SO GERN NACH NASHVILLE
TTITLE14=STONE HANK - ICH BIN EIN MANN DER STRASSE
TTITLE15=ASTOR TOM - DIE FRAU MIT DEM GURT
EXTD=
EXTT0=
EXTT1=
EXTT2=
EXTT3=
EXTT4=
EXTT5=
EXTT6=
EXTT7=
EXTT8=
EXTT9=
EXTT10=
EXTT11=
EXTT12=
EXTT13=
EXTT14=
EXTT15=
PLAYORDER=
